<?xml version="1.0" standalone="no"?>
<!DOCTYPE svg PUBLIC "-//W3C//DTD SVG 20010904//EN"
 "http://www.w3.org/TR/2001/REC-SVG-20010904/DTD/svg10.dtd">
<svg version="1.0" xmlns="http://www.w3.org/2000/svg"
 width="626.000000pt" height="797.000000pt" viewBox="0 0 626.000000 797.000000"
 preserveAspectRatio="xMidYMid meet">

<g transform="translate(0.000000,797.000000) scale(0.100000,-0.100000)"
fill="#000000" stroke="none">
<path d="M3135 7530 c-50 -11 -178 -29 -270 -39 -54 -6 -80 -15 -116 -39 -26
-18 -89 -49 -142 -70 -52 -21 -128 -58 -168 -82 -41 -25 -77 -43 -81 -42 -5 1
-8 -3 -8 -9 0 -7 7 -8 18 -3 9 4 64 9 122 12 258 10 487 -82 650 -264 27 -30
22 -27 -20 12 -65 60 -144 107 -260 156 -177 76 -278 96 -387 80 -97 -15 -160
-22 -145 -16 6 3 12 10 12 15 0 13 -53 -16 -94 -51 -18 -17 -37 -30 -42 -30
-12 0 -74 -72 -93 -108 -21 -42 -97 -71 -183 -72 -56 0 -59 1 -88 41 -39 55
-46 96 -25 158 17 54 48 81 90 81 40 0 26 22 -27 44 -44 18 -47 18 -92 1 -64
-25 -119 -81 -162 -167 -20 -40 -63 -101 -95 -136 -43 -47 -63 -80 -78 -125
-42 -127 -37 -245 13 -312 13 -16 28 -52 35 -80 7 -27 18 -57 26 -65 27 -32
26 -55 -5 -85 -16 -16 -30 -34 -30 -41 0 -6 -7 -17 -16 -25 -20 -16 -61 -97
-86 -169 -26 -72 -37 -311 -18 -391 7 -30 37 -109 66 -177 50 -113 54 -129 54
-200 1 -157 18 -326 40 -392 24 -74 32 -212 14 -251 -84 -175 -94 -303 -36
-434 31 -71 51 -77 27 -8 -34 98 -26 246 19 343 l16 35 -5 -45 c-3 -25 -8 -72
-10 -105 l-5 -60 19 70 19 70 2 -45 c2 -44 2 -44 19 30 10 41 20 69 22 61 3
-8 3 69 1 170 l-4 184 37 53 c32 48 75 133 75 150 0 4 -14 -13 -30 -38 -30
-44 -30 -44 -24 -12 4 17 4 32 0 32 -3 0 -12 -15 -20 -32 -13 -33 -13 -33 -21
45 -4 43 -5 95 -1 115 10 63 57 143 111 186 l50 41 -22 23 c-21 23 -44 119
-42 178 1 18 5 9 10 -24 5 -30 14 -61 20 -70 9 -15 10 -15 5 1 -20 64 -18 125
9 207 25 80 26 89 15 158 -10 64 -10 76 7 109 10 20 23 39 30 41 8 2 7 -6 -3
-27 -13 -25 -14 -43 -6 -94 5 -34 8 -78 6 -97 l-4 -35 10 30 c6 17 13 63 15
104 4 50 11 81 22 93 24 27 38 22 19 -7 -20 -31 -21 -47 -1 -18 16 22 76 48
98 40 7 -2 -1 -11 -18 -21 -16 -9 -22 -15 -12 -12 131 40 185 42 267 12 27
-11 98 -21 180 -27 79 -5 164 -17 205 -29 l70 -20 -105 5 c-58 3 -136 12 -174
20 -111 24 -87 11 46 -25 120 -32 128 -33 308 -31 110 1 191 -3 200 -9 13 -8
12 -10 -5 -10 -17 -1 -16 -3 5 -11 36 -15 60 -39 61 -63 0 -21 1 -21 8 -1 5
11 7 23 4 27 -9 17 50 38 146 53 113 17 168 36 85 29 -36 -3 -29 0 28 11 42 8
102 26 133 40 39 17 75 25 113 25 30 0 85 9 121 20 36 10 140 35 231 55 167
37 212 50 127 39 -26 -4 -47 -4 -47 -1 0 14 163 67 202 66 l43 -1 -35 -8 c-42
-9 -94 -29 -89 -34 2 -2 27 0 54 6 127 25 213 -50 154 -133 -30 -43 -3 -37 39
9 18 20 40 51 48 67 7 17 13 23 14 15 0 -9 -9 -33 -20 -55 -11 -21 -18 -40
-16 -42 6 -6 54 59 64 87 8 22 11 20 31 -35 12 -32 26 -84 31 -115 9 -54 9
-54 7 24 -2 76 -2 77 11 45 9 -21 15 -78 16 -145 2 -61 6 -116 10 -122 4 -7 5
-12 2 -12 -3 0 -12 12 -21 28 -15 26 -16 26 -9 2 4 -14 20 -51 35 -82 21 -42
29 -72 29 -110 -1 -46 -16 -88 -32 -88 -3 0 -8 27 -11 59 -10 115 -22 90 -19
-41 3 -134 14 -181 56 -233 15 -19 16 -19 6 9 -16 45 -5 42 30 -9 47 -68 72
-148 77 -245 l4 -85 -25 50 c-21 40 -25 44 -21 20 5 -28 4 -29 -7 -8 -7 12
-25 30 -39 41 l-25 20 23 -46 c13 -26 32 -76 42 -112 11 -36 31 -92 45 -125
14 -33 26 -76 26 -95 0 -22 3 -30 8 -22 5 7 8 -29 7 -80 l-1 -92 17 39 18 40
1 -35 c0 -19 7 -62 14 -95 l14 -60 2 50 2 50 19 -75 19 -75 -5 65 c-2 36 -7
83 -10 105 -5 38 -4 38 16 -15 28 -76 35 -189 16 -265 -20 -77 -36 -119 -43
-112 -3 3 -9 45 -13 94 l-7 88 -13 -87 c-13 -90 -12 -107 23 -235 17 -59 11
-91 -28 -156 -51 -87 -101 -117 -195 -117 -31 0 -80 -7 -107 -15 -56 -17 -137
-73 -155 -107 l-12 -23 24 21 c36 31 71 50 104 57 28 7 27 4 -24 -42 -91 -84
-134 -77 -223 35 -28 36 -69 77 -91 91 -77 49 -201 40 -269 -18 l-33 -29 45
25 c25 14 54 25 65 25 17 0 16 -4 -10 -24 -51 -40 -78 -66 -71 -66 4 0 19 9
34 20 34 25 96 45 85 27 -34 -56 -84 -118 -78 -97 4 14 13 31 19 39 8 12 8 13
-2 7 -7 -4 -27 -26 -43 -48 -31 -44 -34 -44 -19 -1 l10 28 -21 -25 c-13 -16
-22 -21 -25 -13 -3 7 -12 9 -20 6 -12 -4 -13 0 -4 23 6 16 16 35 22 44 6 8 -6
-2 -26 -22 -20 -21 -36 -37 -36 -35 0 1 -7 20 -15 42 l-14 40 -1 -36 0 -35
-46 10 c-40 10 -45 14 -41 34 l4 23 -25 -23 -25 -23 21 30 c11 17 23 41 27 55
6 21 2 19 -19 -11 -38 -55 -59 -59 -35 -6 27 61 23 79 -7 27 -39 -69 -61 -87
-138 -116 -39 -15 -76 -31 -83 -36 -8 -7 -10 -3 -6 12 6 21 5 21 -31 6 -20 -8
-36 -12 -36 -9 0 3 -9 -2 -21 -13 -21 -18 -21 -18 -41 9 -11 15 -25 27 -31 27
-8 0 -7 -4 1 -12 23 -23 12 -26 -28 -7 -47 23 -50 23 -50 4 0 -12 -8 -11 -46
5 -25 11 -52 20 -60 20 -21 0 -93 68 -114 109 -11 20 -19 29 -19 21 -1 -8 6
-28 14 -44 22 -42 8 -46 -26 -8 -36 40 -38 28 -3 -24 l26 -39 -27 25 c-26 24
-27 24 -21 3 8 -25 4 -28 -46 -37 -38 -7 -38 -6 -39 26 l-1 33 -15 -44 -16
-44 -34 39 -34 39 22 -44 c16 -35 18 -43 6 -38 -9 3 -18 1 -20 -6 -3 -7 -12
-2 -26 13 l-21 25 6 -30 6 -30 -20 30 c-10 17 -28 38 -39 48 -19 17 -19 15 3
-30 13 -26 24 -55 24 -65 0 -31 -44 2 -79 59 -40 66 -51 64 -17 -4 14 -27 28
-69 31 -94 l6 -44 -24 61 c-24 63 -53 110 -95 157 -30 32 -24 34 26 8 35 -18
81 -60 117 -106 30 -38 -4 24 -42 77 -19 26 -32 48 -29 48 15 0 82 -32 98 -47
10 -9 18 -11 18 -5 0 6 -21 27 -46 47 -56 42 -34 48 36 10 l45 -25 -33 29
c-92 79 -257 61 -329 -38 -48 -66 -106 -120 -134 -126 -17 -4 -39 0 -56 9 -39
22 -121 96 -105 96 23 0 76 -26 110 -54 47 -40 39 -15 -9 29 -61 55 -119 77
-226 85 -111 8 -129 18 -190 109 -50 73 -54 110 -23 209 23 74 24 131 6 222
l-14 65 -2 -80 c-2 -74 -17 -159 -19 -111 -1 11 -4 16 -8 12 -4 -4 -6 -26 -4
-49 1 -23 -5 -62 -13 -86 -9 -24 -16 -59 -16 -79 0 -66 96 -205 167 -241 12
-6 50 -11 85 -11 78 0 132 -30 142 -81 17 -84 4 -124 -88 -279 -60 -101 -96
-185 -96 -226 0 -14 7 -49 15 -78 18 -62 25 -188 12 -234 -10 -40 -6 -47 21
-33 20 10 19 8 -4 -51 -38 -97 -30 -151 35 -229 65 -76 84 -115 78 -155 -6
-37 7 -38 24 0 7 16 8 12 4 -19 -20 -148 -19 -159 15 -228 28 -57 82 -117 105
-117 4 0 -2 16 -14 35 -27 46 -14 45 31 -2 50 -53 64 -85 79 -188 15 -105 12
-91 32 -136 9 -20 23 -39 32 -43 13 -4 14 -2 5 14 -5 10 -10 38 -10 62 l0 43
16 -30 c25 -49 45 -65 121 -101 39 -19 81 -46 92 -61 l21 -26 0 24 c0 17 3 20
11 12 6 -6 15 -47 20 -90 17 -155 35 -205 89 -243 l31 -22 -20 38 c-23 42 -31
98 -9 59 6 -11 35 -46 64 -77 29 -32 55 -71 58 -88 3 -16 9 -43 12 -60 11 -59
24 -41 24 34 0 84 11 96 46 49 26 -35 34 -58 40 -108 12 -100 27 -148 54 -178
29 -33 49 -33 31 0 -14 27 -21 97 -11 113 15 23 40 -8 40 -49 0 -40 18 -75 27
-53 8 21 20 14 56 -37 56 -77 69 -110 76 -185 l6 -71 12 40 c6 22 16 56 21 75
l9 35 19 -52 c10 -29 23 -53 27 -53 14 0 -2 66 -30 129 -39 87 -44 110 -43
197 0 83 38 254 66 304 12 21 14 21 9 3 -3 -11 -10 -45 -15 -75 -5 -29 -18
-93 -30 -143 -26 -107 -23 -139 25 -279 39 -115 55 -193 37 -182 -7 4 -12 1
-13 -6 -1 -14 -5 -44 -14 -91 -3 -20 -1 -27 8 -25 17 6 66 145 66 191 1 41 3
42 31 25 26 -17 35 -4 16 24 -17 24 -21 120 -7 168 7 22 9 20 15 -20 18 -101
105 -231 154 -229 14 0 14 2 -3 10 -35 18 -72 77 -85 137 -11 53 -10 61 8 93
11 20 22 45 24 55 4 15 6 12 12 -11 14 -56 18 -62 26 -35 5 14 9 50 10 80 1
30 7 73 14 95 l12 40 13 -72 c12 -59 12 -81 2 -114 -14 -46 -9 -58 14 -39 31
26 39 48 57 165 11 69 53 153 73 148 6 -2 11 -30 13 -64 4 -74 22 -75 38 -3
14 62 26 86 61 115 16 13 38 37 51 53 27 35 31 12 6 -36 l-16 -30 30 18 c47
27 67 79 82 218 10 88 29 149 30 97 0 -25 0 -25 32 8 18 18 60 45 94 61 44 20
71 40 92 69 27 37 30 39 35 20 3 -12 1 -32 -4 -46 -14 -38 -11 -45 12 -22 26
26 35 58 54 178 15 101 32 136 95 187 l35 29 -18 -28 c-28 -43 -15 -53 25 -19
19 17 48 59 63 93 29 65 29 74 10 224 -4 38 -4 39 7 13 14 -34 29 -37 27 -5
-5 56 3 79 50 135 90 108 97 141 56 261 l-24 72 31 -23 c29 -20 31 -21 23 -2
-27 65 -28 129 -5 246 23 113 23 119 7 171 -9 29 -40 92 -69 138 -86 139 -97
167 -98 236 0 34 4 73 10 87 13 36 59 56 130 56 81 0 125 24 179 97 75 99 87
154 55 247 -20 58 -15 91 26 180 50 107 52 253 6 360 -7 17 -23 56 -34 86
l-22 55 45 295 c29 191 45 329 45 391 0 94 7 130 37 197 61 137 60 470 -1 567
-7 11 -16 40 -20 65 -10 63 -48 140 -88 175 -40 37 -139 85 -176 86 -61 1 14
18 86 18 84 1 105 -7 149 -57 25 -28 33 -33 33 -19 0 44 -69 126 -123 146 -16
6 -55 11 -88 11 -32 0 -59 4 -59 9 0 5 9 28 20 52 28 63 27 153 -3 209 -13 24
-27 45 -33 47 -5 2 -15 -29 -21 -68 -18 -116 -30 -106 -38 31 -8 132 -6 127
-79 183 -20 15 -51 51 -69 80 -34 53 -120 137 -141 137 -6 0 -29 12 -51 28
-51 35 -132 81 -221 126 -57 29 -95 40 -188 53 -113 16 -116 16 -181 -5 -85
-29 -112 -28 -176 6 -48 24 -64 27 -169 29 -63 1 -133 -2 -155 -7z m250 -32
c77 -19 178 -83 225 -143 13 -17 13 -18 0 -10 -8 5 -31 21 -50 36 -47 38 -195
106 -259 120 -28 6 -51 13 -51 15 0 6 82 -5 135 -18z m348 -25 c-13 -2 -35 -2
-50 0 -16 2 -5 4 22 4 28 0 40 -2 28 -4z m85 0 c-10 -2 -28 -2 -40 0 -13 2 -5
4 17 4 22 1 32 -1 23 -4z m190 -58 c51 -24 92 -47 92 -50 0 -7 -67 21 -110 47
-19 11 -51 26 -70 34 -19 7 -28 13 -19 13 8 1 57 -19 107 -44z m193 -112 c38
-40 26 -36 -41 15 -59 45 -58 44 -23 32 16 -6 45 -27 64 -47z m-1298 13 c190
-37 372 -169 453 -329 36 -71 24 -67 -19 6 -49 84 -134 166 -237 227 -108 64
-186 87 -330 98 l-115 9 87 2 c47 0 120 -5 161 -13z m-1048 -42 c-11 -8 -38
-20 -60 -26 -46 -13 -91 -71 -111 -147 l-13 -46 0 40 c-1 48 27 111 62 143 27
25 89 51 122 51 l20 0 -20 -15z m2554 -218 c1 -68 -5 -55 -12 24 -3 38 -1 57
3 45 5 -11 9 -42 9 -69z m107 -47 c10 -21 12 -42 6 -81 l-8 -53 -7 49 c-4 27
-11 54 -16 60 -4 6 -11 26 -15 45 -5 30 -4 32 10 20 8 -7 22 -25 30 -40z
m-2012 16 c78 -14 167 -55 221 -100 26 -23 24 -22 -21 4 -88 53 -138 70 -232
81 -78 9 -110 7 -219 -10 -70 -11 -146 -26 -170 -32 -24 -6 -46 -8 -49 -6 -7
8 192 58 266 67 99 13 122 12 204 -4z m499 -125 c17 -25 23 -39 14 -31 -24 19
-21 11 18 -55 58 -95 77 -171 82 -319 3 -94 0 -145 -11 -185 l-15 -55 7 65
c19 176 -16 368 -93 520 -14 28 -23 50 -20 50 3 0 -13 26 -36 58 -39 53 -40
55 -10 27 18 -16 47 -50 64 -75z m1628 -138 c-27 -53 -79 -130 -94 -139 -7 -4
-3 6 7 22 55 85 65 103 76 140 22 69 24 72 27 43 3 -14 -5 -44 -16 -66z
m-2861 52 c0 -2 -9 0 -20 6 -11 6 -20 13 -20 16 0 2 9 0 20 -6 11 -6 20 -13
20 -16z m95 -16 c11 0 103 3 205 7 187 7 206 5 352 -33 53 -14 197 -89 238
-124 l35 -29 -60 26 c-90 40 -160 65 -255 93 -74 22 -113 25 -310 31 -177 6
-232 11 -260 24 l-35 16 35 -5 c19 -3 44 -5 55 -6z m1484 -168 c1 -145 -34
-261 -105 -346 -17 -20 -13 -10 11 31 62 104 77 171 77 330 0 83 3 130 8 115
4 -14 8 -72 9 -130z m1135 113 c-12 -52 -141 -243 -164 -243 -4 0 5 16 22 34
30 34 75 106 120 194 26 49 31 53 22 15z m-599 -104 c-24 -96 -28 -82 -7 20 9
46 19 76 20 67 2 -10 -4 -49 -13 -87z m359 59 c-76 -147 -214 -313 -341 -409
-188 -143 -259 -183 -368 -203 -31 -6 45 38 155 90 102 47 133 65 190 109 87
67 268 276 340 393 35 58 50 70 24 20z m-2686 -124 c48 -38 127 -69 226 -90
55 -12 105 -14 216 -10 80 4 158 2 175 -3 21 -7 -28 -10 -165 -12 -246 -2
-263 -1 -330 22 -92 32 -152 79 -188 147 -18 33 -32 65 -32 72 0 7 13 -12 28
-41 16 -30 46 -68 70 -85z m2269 -96 c-38 -77 -115 -173 -182 -229 -35 -29
-34 -27 11 22 54 57 178 233 189 269 4 12 9 19 12 16 4 -3 -10 -38 -30 -78z
m879 -8 c45 -19 109 -72 126 -104 8 -16 2 -13 -25 11 -53 47 -139 85 -252 112
-33 8 -26 9 35 4 41 -3 93 -13 116 -23z m104 -135 c13 -14 21 -25 18 -25 -2 0
-15 11 -28 25 -13 14 -21 25 -18 25 2 0 15 -11 28 -25z m-3231 -8 c-2 -1 -13
-9 -24 -17 -19 -14 -19 -14 -6 3 7 9 18 17 24 17 6 0 8 -1 6 -3z m3286 -68
c22 -41 11 -36 -14 7 -12 19 -16 32 -11 29 6 -3 17 -19 25 -36z m-1645 -13 c0
-2 -8 -10 -17 -17 -16 -13 -17 -12 -4 4 13 16 21 21 21 13z m-1745 -44 c-7
-20 -25 -105 -40 -187 -21 -116 -26 -169 -22 -235 3 -50 2 -75 -3 -60 -4 14
-8 82 -9 152 -1 167 25 305 66 350 22 25 22 23 8 -20z m440 -8 c37 -13 96 -19
225 -23 l175 -6 -135 -14 c-104 -11 -150 -11 -206 -3 -82 13 -173 44 -206 72
-23 18 -22 18 37 5 33 -7 83 -21 110 -31z m1685 21 c0 -2 -35 -31 -79 -63 -70
-54 -188 -112 -223 -112 -11 0 88 57 192 111 19 10 51 29 70 43 38 27 40 28
40 21z m-1160 -25 c-8 -5 -24 -9 -35 -9 -16 1 -16 2 5 9 35 11 48 11 30 0z
m687 -59 c-50 -66 -78 -89 -43 -35 19 27 86 104 92 104 2 0 -20 -31 -49 -69z
m-759 42 c-10 -2 -26 -2 -35 0 -10 3 -2 5 17 5 19 0 27 -2 18 -5z m749 -189
c-3 -3 -12 -4 -19 -1 -8 3 -5 6 6 6 11 1 17 -2 13 -5z m-1351 -126 c-23 -125
-24 -126 -25 -80 -1 42 29 176 37 167 2 -2 -3 -41 -12 -87z m2920 -13 c10 -42
-12 -28 -25 16 -7 23 -15 48 -18 58 -3 9 4 1 16 -16 11 -18 23 -44 27 -58z
m-3107 -115 c-6 -41 -19 -124 -30 -185 -10 -60 -21 -126 -22 -145 -2 -19 -5
-1 -5 40 -1 41 5 109 13 151 21 113 46 221 50 217 2 -2 -1 -37 -6 -78z m3183
-57 c62 -128 78 -205 76 -358 l-1 -120 -8 130 c-9 152 -29 225 -100 367 -49
98 -63 141 -32 103 8 -11 38 -66 65 -122z m-767 -1958 c-34 -35 -64 -85 -91
-154 l-14 -36 5 40 c4 22 15 58 25 79 28 58 19 54 -21 -8 -18 -30 -36 -53 -38
-50 -2 2 -10 -1 -18 -7 -10 -9 -13 -8 -13 4 0 23 97 125 140 148 54 28 64 22
25 -16z m-1671 -102 c-21 -68 -23 -215 -4 -239 19 -22 3 -30 -20 -9 -25 22
-36 14 -20 -14 12 -23 6 -41 -14 -41 -12 0 -56 113 -56 145 0 7 -5 17 -12 21
-8 5 -9 -5 -4 -37 l6 -44 -30 33 c-16 18 -30 39 -30 48 0 27 -25 9 -30 -22
l-5 -29 -21 30 c-30 43 -36 66 -23 81 17 20 28 17 22 -6 -3 -11 -2 -28 2 -37
6 -15 9 -13 20 12 11 24 14 26 15 10 1 -14 9 -5 26 28 13 26 27 47 30 47 3 0
3 -4 0 -8 -2 -4 -1 -14 5 -22 6 -11 9 -6 9 17 0 56 20 48 21 -9 l0 -53 18 73
c10 40 21 75 24 79 4 3 4 -37 0 -89 -3 -52 -2 -112 2 -134 8 -35 10 -29 16 53
6 74 12 102 34 139 15 25 29 43 32 41 3 -3 -3 -32 -13 -64z m1743 10 c23 -49
28 -70 28 -135 0 -53 3 -74 10 -67 6 6 9 60 9 132 -1 67 1 115 4 107 3 -8 13
-44 23 -80 l17 -65 1 48 c1 50 20 58 22 9 0 -23 2 -24 8 -8 7 18 8 18 24 -5 9
-13 17 -29 17 -36 0 -6 5 -15 12 -19 7 -5 9 -2 4 7 -4 8 1 4 13 -9 23 -26 36
-14 26 25 -5 23 -4 25 9 14 22 -18 20 -39 -6 -81 l-21 -35 -9 33 c-9 32 -28
45 -28 17 0 -8 -14 -29 -31 -47 l-31 -33 6 38 c6 43 -9 51 -17 9 -3 -15 -15
-53 -27 -85 -19 -51 -23 -56 -41 -47 -18 10 -18 13 -4 40 18 35 14 37 -22 13
l-26 -17 6 27 c23 91 18 169 -19 290 -12 40 17 13 43 -40z m-1129 3 c9 -9
-131 -5 -158 5 -16 6 5 7 64 4 48 -2 91 -6 94 -9z m639 7 c-20 -2 -52 -2 -70
0 -17 2 0 4 38 4 39 0 53 -2 32 -4z m-124 -10 c-7 -2 -19 -2 -25 0 -7 3 -2 5
12 5 14 0 19 -2 13 -5z m-476 -9 c-3 -3 -12 -4 -19 -1 -8 3 -5 6 6 6 11 1 17
-2 13 -5z m1400 -202 c-6 -55 -36 -116 -63 -126 -9 -3 -3 9 14 28 35 40 49
106 33 149 -15 39 -13 46 5 22 12 -15 14 -34 11 -73z m-2380 26 c-3 -7 -5 -2
-5 12 0 14 2 19 5 13 2 -7 2 -19 0 -25z m1860 -23 c38 -15 99 -47 136 -73 37
-26 91 -62 120 -80 43 -27 47 -32 22 -26 -41 9 -63 21 -115 64 -64 53 -125 85
-207 110 -40 12 -73 24 -73 26 0 12 57 1 117 -21z m-2013 -89 c-27 -47 -50
-83 -52 -81 -2 2 17 43 43 90 26 48 49 84 52 81 3 -3 -16 -43 -43 -90z m174 7
c19 -34 73 -70 122 -81 35 -8 39 -10 17 -11 -68 -2 -155 70 -162 135 -4 34 -4
35 3 9 5 -16 14 -40 20 -52z m492 70 c-8 -3 -41 -19 -73 -35 -33 -16 -56 -24
-52 -18 10 16 97 59 120 59 14 0 16 -2 5 -6z m2039 -109 c50 -98 58 -152 37
-259 l-16 -80 6 75 c12 136 7 163 -57 294 -65 132 -40 108 30 -30z m-2184 38
c-32 -27 -94 -71 -115 -81 l-25 -12 24 18 c14 10 43 32 65 50 23 18 45 32 51
32 6 1 6 -2 0 -7z m115 -115 c-54 -51 -126 -97 -152 -97 -17 0 -6 10 38 33 34
19 79 48 100 65 50 42 59 41 14 -1z m-700 -72 c-3 -57 -7 -73 -12 -55 -4 14
-8 34 -8 45 0 21 20 99 24 93 1 -1 -1 -39 -4 -83z m1424 -3 c2 -4 -1 -15 -8
-25 -12 -16 -14 -16 -30 1 -9 10 -13 22 -9 25 9 9 41 9 47 -1z m-58 -157 l-1
-100 -34 2 c-18 0 -38 6 -43 11 -6 6 1 8 19 6 l28 -4 -32 15 c-17 8 -35 20
-39 26 -5 8 -3 9 7 4 8 -5 7 0 -3 12 -21 23 -23 37 -5 27 10 -6 10 -4 0 7 -22
23 -14 46 23 68 20 12 38 21 39 19 2 -2 7 -23 13 -48 l10 -45 1 65 c1 40 5 59
10 50 4 -8 8 -60 7 -115z m95 63 c1 -35 3 -52 6 -38 2 14 6 35 8 47 l5 21 38
-21 c31 -16 38 -25 34 -44 -2 -13 -9 -23 -16 -23 -6 0 -4 -5 4 -10 13 -8 12
-11 -5 -25 -11 -9 -14 -14 -7 -10 6 3 12 2 12 -3 0 -4 -15 -16 -32 -25 -32
-15 -32 -16 -8 -17 l25 -1 -25 -10 c-13 -6 -34 -8 -46 -5 -20 5 -21 11 -18
103 2 54 4 104 4 111 0 6 5 12 10 12 6 0 11 -28 11 -62z m-755 -3 c-109 -88
-306 -129 -420 -85 -41 15 -25 24 21 11 21 -6 75 -11 120 -11 95 0 148 17 233
73 62 41 90 48 46 12z m519 -32 c-4 -10 -9 -33 -12 -50 -3 -18 -11 -33 -18
-33 -18 0 -64 39 -46 40 8 0 2 9 -13 21 -15 12 -25 24 -22 27 3 3 16 -3 28
-14 18 -16 21 -17 15 -2 -5 13 1 18 26 21 18 2 36 5 41 5 4 1 5 -6 1 -15z
m412 7 c21 0 24 -2 13 -15 -17 -20 -1 -19 22 2 10 9 18 11 18 5 0 -6 -9 -17
-21 -25 -12 -9 -16 -16 -9 -19 7 -2 -4 -12 -24 -23 -19 -10 -37 -17 -39 -15
-3 3 -8 27 -12 54 -6 43 -5 48 10 42 9 -3 28 -6 42 -6z m670 -32 c15 -6 64
-14 108 -18 l80 -7 -75 -1 c-53 0 -87 5 -115 18 -44 20 -43 27 2 8z m-2240
-30 c-3 -8 -6 -5 -6 6 -1 11 2 17 5 13 3 -3 4 -12 1 -19z m716 -24 c3 -3 2
-17 -3 -30 -6 -13 -10 -47 -11 -74 -2 -54 -14 -65 -28 -27 -8 20 -15 102 -12
130 1 8 45 10 54 1z m1283 -2 c13 -9 3 -127 -12 -142 -8 -8 -14 7 -19 52 -5
35 -9 68 -10 73 -3 24 18 33 41 17z m-1374 -38 l4 -37 -18 23 c-19 24 -24 45
-8 35 6 -3 10 -1 10 4 0 25 8 8 12 -25z m1450 22 c6 4 2 -8 -8 -25 -17 -30
-19 -31 -22 -11 -4 26 8 61 15 42 3 -6 9 -9 15 -6z m632 -164 c17 -47 25 -92
25 -125 l-2 -52 -7 55 c-4 30 -19 88 -34 127 -17 48 -26 90 -25 125 l2 53 8
-55 c4 -30 19 -88 33 -128z m-2225 93 l20 -70 -6 52 c-3 29 -2 60 1 70 7 16 9
15 27 -7 14 -18 17 -20 12 -6 -4 13 -3 17 5 13 6 -4 13 1 15 10 4 15 5 14 6
-3 1 -21 10 -32 94 -110 26 -24 45 -44 41 -44 -4 0 14 -21 39 -46 26 -25 49
-54 52 -65 7 -21 90 -63 109 -56 13 5 42 -58 37 -81 -1 -8 4 -21 12 -30 9 -10
20 -33 25 -52 6 -21 11 -27 11 -15 2 18 3 18 15 -4 12 -21 14 -21 20 -6 3 10
4 26 1 36 -4 12 -1 21 9 25 25 10 19 19 -14 21 -36 3 -81 24 -62 31 6 2 10 7
7 11 -2 5 6 6 18 4 12 -2 33 0 47 5 21 8 27 5 42 -19 10 -16 23 -29 29 -29 8
0 7 6 -3 18 -33 37 -30 45 4 10 36 -39 73 -49 96 -26 9 9 16 5 32 -15 12 -15
26 -27 32 -27 6 0 5 6 -2 15 -10 13 -6 12 19 -2 31 -18 32 -18 50 6 18 23 18
23 24 2 7 -27 34 -27 64 1 22 21 24 21 18 3 -7 -20 -6 -20 9 -1 9 11 16 24 16
29 0 6 8 3 18 -6 20 -19 77 -23 87 -7 4 6 10 8 15 5 5 -3 18 8 30 25 12 17 26
27 32 24 17 -11 78 -22 73 -14 -3 4 3 14 12 21 15 12 16 12 10 -6 -6 -16 -3
-15 13 5 11 14 20 28 20 32 0 3 13 9 30 13 16 3 43 22 60 41 16 19 30 29 30
22 1 -7 6 -3 13 8 20 35 75 94 89 95 8 0 9 2 2 5 -12 5 48 74 65 74 15 0 51
50 51 71 0 28 17 23 24 -7 l7 -25 19 23 18 23 7 -28 c4 -15 3 -45 -3 -67 -5
-22 -6 -37 -1 -34 5 3 9 13 10 22 0 9 3 12 5 5 3 -6 -9 -46 -25 -88 -17 -42
-31 -80 -31 -85 0 -5 18 10 41 33 47 49 47 49 -20 -62 -42 -70 -51 -80 -51
-56 0 22 -3 25 -14 16 -11 -10 -16 -8 -21 8 -3 11 -1 29 5 41 6 11 8 20 6 20
-13 0 -45 -80 -51 -125 -4 -28 -12 -66 -18 -85 l-12 -35 -5 40 -6 40 -22 -43
c-13 -23 -27 -40 -31 -37 -5 3 -12 -2 -15 -11 -4 -9 -9 -14 -12 -11 -3 3 2 19
11 37 9 18 15 33 13 35 -2 2 -30 -41 -62 -96 -32 -54 -60 -99 -62 -99 -9 0 11
67 26 90 32 48 36 57 17 41 -13 -11 -17 -11 -17 -1 0 8 -3 11 -6 8 -3 -4 -4
-8 -2 -11 5 -8 -34 -47 -43 -42 -4 3 -25 -16 -46 -42 -21 -26 -45 -55 -53 -63
-14 -14 -14 -14 0 -5 13 9 13 8 2 -7 -8 -9 -19 -15 -27 -12 -7 3 -16 1 -20 -5
-12 -20 -25 -11 -26 17 l-1 27 -8 -25 c-6 -22 -8 -23 -15 -7 -7 16 -8 16 -20
1 -10 -15 -14 -13 -33 17 -11 19 -32 45 -46 58 l-26 24 0 -24 c0 -22 -3 -21
-41 19 l-41 43 3 -50 c4 -46 3 -49 -13 -34 -10 9 -20 25 -24 36 -6 20 -7 20
-20 2 -13 -18 -14 -18 -15 6 0 21 -2 19 -14 -11 l-14 -35 4 38 c2 20 0 37 -5
37 -4 0 -25 -19 -45 -42 -37 -41 -38 -41 -32 -13 5 28 2 26 -45 -23 -50 -52
-68 -63 -68 -39 0 8 -4 7 -10 -3 -8 -12 -10 -10 -11 10 -1 22 -2 21 -10 -8
-10 -35 -16 -35 -59 2 -17 15 -20 16 -11 3 8 -9 12 -20 9 -23 -3 -3 -17 14
-31 38 -14 24 -40 59 -57 78 -29 32 -30 32 -12 5 36 -57 33 -60 -11 -11 -25
28 -44 55 -43 60 2 6 1 7 -2 3 -2 -4 -10 -3 -18 4 -19 16 -17 0 4 -36 18 -28
37 -85 29 -85 -2 0 -28 41 -57 90 -29 50 -55 88 -57 86 -3 -2 1 -15 8 -28 11
-21 11 -22 -5 -9 -15 12 -16 12 -10 -5 4 -14 1 -13 -15 6 -12 14 -24 35 -27
47 -8 29 -24 20 -24 -14 0 -43 -10 -20 -21 46 -10 65 -38 146 -47 137 -3 -3
-5 -20 -4 -38 1 -29 -1 -31 -12 -15 -17 23 -24 22 -28 -5 -2 -18 -10 -11 -39
38 -60 98 -66 115 -25 72 40 -41 44 -37 20 20 -19 42 -64 200 -64 221 0 26 8
7 29 -64z m1452 -12 c3 -105 2 -113 -21 -113 -14 0 -20 7 -20 23 0 12 -3 32
-6 45 -5 16 -2 22 10 22 9 0 16 4 16 9 0 5 -10 7 -22 4 -20 -4 -19 -2 5 12 30
17 36 28 10 18 -10 -4 -14 -2 -9 5 4 7 -1 10 -14 7 -27 -5 -25 10 2 30 21 14
24 14 35 -2 7 -9 14 -36 14 -60z m-1137 52 c19 -15 19 -15 -2 -15 -12 0 -22
-5 -22 -11 0 -5 -4 -7 -10 -4 -5 3 -10 2 -10 -3 0 -5 10 -14 23 -21 12 -6 14
-9 5 -7 -19 6 -26 -10 -8 -16 7 -2 8 -19 4 -46 -5 -32 -11 -42 -23 -40 -12 2
-17 17 -19 58 -6 109 13 142 62 105z m1410 -24 c-4 -17 -9 -30 -11 -27 -3 2
-2 19 2 36 9 41 17 33 9 -9z m-2207 -13 c-3 -7 -5 -2 -5 12 0 14 2 19 5 13 2
-7 2 -19 0 -25z m1854 -108 c1 -80 -35 -140 -84 -140 -6 0 -2 7 9 15 16 12 16
14 2 9 -16 -5 -17 1 -14 56 2 39 9 66 17 71 8 4 14 16 14 26 0 10 4 24 8 31 7
10 2 11 -17 6 -35 -9 -33 2 7 26 l32 20 13 -30 c7 -17 13 -58 13 -90z m-970
89 l24 -20 -25 7 c-25 7 -25 6 -7 -14 13 -14 15 -22 7 -27 -8 -5 -7 -12 5 -25
22 -25 19 -130 -4 -123 -9 2 -5 -3 9 -11 23 -14 23 -15 4 -16 -11 0 -33 13
-49 30 -33 35 -44 109 -26 178 13 47 27 52 62 21z m1346 -11 c-3 -8 -6 -5 -6
6 -1 11 2 17 5 13 3 -3 4 -12 1 -19z m-2255 -70 c-38 -120 -36 -156 13 -223
36 -48 39 -63 6 -26 -41 46 -61 91 -61 135 0 39 52 205 58 187 2 -6 -5 -39
-16 -73z m1056 25 c15 -19 9 -154 -9 -200 -13 -35 -54 -31 -74 7 -16 31 -22
200 -7 214 12 13 76 -2 90 -21z m700 -77 c2 -76 -1 -104 -13 -122 -15 -24 -40
-30 -62 -16 -15 9 -36 162 -27 197 7 29 35 45 74 42 25 -2 25 -3 28 -101z
m-582 52 c34 -16 30 -28 -8 -29 l-33 -1 40 -13 c25 -8 33 -14 20 -15 -18 -1
-17 -3 5 -12 14 -6 20 -12 13 -15 -10 -3 -10 -9 0 -24 10 -16 9 -21 -3 -29 -8
-5 -10 -10 -5 -10 6 0 9 -19 7 -45 -4 -39 -7 -45 -27 -45 -30 0 -40 15 -55 80
-20 94 -23 99 -31 65 -6 -25 -7 -22 -8 20 -1 28 -4 61 -8 74 -6 23 -4 24 31
17 21 -4 49 -12 62 -18z m459 -20 c-4 -23 -11 -49 -16 -58 -5 -8 -13 -41 -19
-72 -12 -63 -51 -108 -75 -88 -16 13 -17 140 -1 140 6 0 5 4 -3 9 -23 15 -5
44 24 39 13 -3 22 -2 20 3 -3 4 3 10 12 12 10 3 0 5 -21 6 -32 1 -38 4 -28 14
15 14 69 35 95 36 16 1 18 -4 12 -41z m-305 -23 c15 -17 8 -182 -8 -211 -7
-13 -12 -11 -35 15 -32 38 -47 89 -47 159 l0 52 39 0 c22 0 44 -6 51 -15z
m153 -12 c12 -64 -15 -154 -59 -198 -17 -16 -18 -16 -26 4 -4 12 -11 57 -14
100 -8 99 2 121 55 121 34 0 39 -3 44 -27z m-1165 -227 c1 -46 6 -96 12 -111
6 -15 9 -30 6 -32 -9 -9 -36 93 -36 136 0 39 8 91 14 91 1 0 2 -38 4 -84z
m239 -18 c-2 -18 -4 -6 -4 27 0 33 2 48 4 33 2 -15 2 -42 0 -60z m1055 50 c-7
-7 -12 -8 -12 -2 0 14 12 26 19 19 2 -3 -1 -11 -7 -17z m621 -228 c-7 -52 -8
-48 -19 70 -16 167 -15 182 7 75 13 -62 17 -107 12 -145z m-277 -11 c-32 -55
-33 -39 -3 32 15 38 23 48 25 33 2 -11 -8 -40 -22 -65z m-156 51 c-6 -11 -13
-20 -16 -20 -2 0 0 9 6 20 6 11 13 20 16 20 2 0 0 -9 -6 -20z m-4 -67 c-8 -16
-54 -66 -102 -113 -110 -108 -90 -66 25 51 47 48 87 88 89 88 1 1 -4 -11 -12
-26z m-1146 -3 c6 -11 8 -20 6 -20 -3 0 -10 9 -16 20 -6 11 -8 20 -6 20 3 0
10 -9 16 -20z m1937 -22 c-3 -8 -6 -5 -6 6 -1 11 2 17 5 13 3 -3 4 -12 1 -19z
m-1851 -225 c-7 -7 -23 29 -30 67 -6 31 -4 29 14 -14 11 -27 19 -51 16 -53z
m-394 -115 c-7 -7 -12 -8 -12 -2 0 6 3 14 7 17 3 4 9 5 12 2 2 -3 -1 -11 -7
-17z m836 -121 c-6 -95 -24 -137 -88 -207 -38 -42 -40 -43 -30 -15 6 17 32 60
57 97 41 60 46 74 51 137 2 39 7 71 10 71 3 0 2 -37 0 -83z m389 1 c-2 -13 -4
-5 -4 17 -1 22 1 32 4 23 2 -10 2 -28 0 -40z m746 -3 c-16 -34 -53 -64 -120
-99 -49 -25 -40 -12 15 22 58 36 85 60 101 90 19 35 22 25 4 -13z m-1619 -185
c5 -92 4 -132 -3 -125 -12 12 -27 225 -17 250 3 10 8 16 10 14 2 -2 6 -65 10
-139z m903 -32 c-3 -7 -5 -2 -5 12 0 14 2 19 5 13 2 -7 2 -19 0 -25z m375 -94
c-16 -43 -112 -188 -112 -169 0 3 20 35 45 70 25 35 53 84 61 110 9 25 18 44
21 42 2 -3 -4 -26 -15 -53z m-372 -47 c-6 -47 -22 -114 -36 -149 -14 -35 -22
-52 -19 -38 36 155 45 200 45 231 0 33 8 54 17 45 2 -2 -1 -42 -7 -89z m-541
-81 c2 -45 -6 -27 -12 29 -4 34 -3 42 3 25 4 -14 8 -38 9 -54z m-96 -86 c37
-32 53 -64 61 -120 6 -48 -7 -31 -19 24 -3 16 -31 54 -61 86 -81 86 -71 91 19
10z m590 -242 c-9 -50 -25 -71 -18 -23 4 22 9 43 11 47 10 17 13 7 7 -24z"/>
<path d="M2162 3480 c0 -14 2 -19 5 -12 2 6 2 18 0 25 -3 6 -5 1 -5 -13z"/>
<path d="M4202 3480 c0 -14 2 -19 5 -12 2 6 2 18 0 25 -3 6 -5 1 -5 -13z"/>
<path d="M2403 2810 c0 -22 4 -37 8 -34 5 3 9 -2 9 -12 0 -13 3 -14 14 -5 8 7
16 8 18 2 1 -5 8 -4 14 3 8 9 2 21 -26 49 l-37 36 0 -39z"/>
<path d="M3918 2808 c-22 -22 -32 -38 -24 -38 8 0 17 -8 19 -17 4 -16 5 -16 6
1 1 15 4 16 15 7 12 -10 14 -8 9 11 -4 18 -2 20 6 8 14 -20 18 -11 11 30 l-5
35 -37 -37z"/>
<path d="M2522 2698 c1 -18 9 -41 19 -52 17 -17 19 -18 25 -3 3 10 13 17 21
17 13 0 13 3 3 15 -7 9 -26 25 -41 36 l-28 19 1 -32z"/>
<path d="M3795 2695 c-29 -25 -35 -34 -22 -35 10 0 20 -7 23 -15 9 -22 24 -8
25 23 0 24 1 25 9 7 7 -16 9 -13 9 18 1 20 0 37 -1 37 -2 0 -21 -16 -43 -35z"/>
<path d="M2452 2680 c0 -14 2 -19 5 -12 2 6 2 18 0 25 -3 6 -5 1 -5 -13z"/>
<path d="M3912 2680 c0 -14 2 -19 5 -12 2 6 2 18 0 25 -3 6 -5 1 -5 -13z"/>
<path d="M2635 2590 c8 -16 15 -42 15 -57 0 -22 2 -25 10 -13 8 13 10 13 10
-2 0 -25 21 -33 27 -10 2 11 15 23 26 27 l22 8 -21 4 c-12 2 -36 20 -54 39
-41 42 -56 44 -35 4z"/>
<path d="M3693 2586 c-21 -18 -47 -36 -58 -39 -19 -5 -19 -5 3 -12 24 -8 30
-30 10 -38 -7 -3 -2 -4 11 -4 14 1 26 9 29 19 3 14 7 16 18 7 11 -9 14 -6 14
19 0 17 4 42 10 56 12 34 8 33 -37 -8z"/>
<path d="M2535 2600 c3 -5 8 -10 11 -10 2 0 4 5 4 10 0 6 -5 10 -11 10 -5 0
-7 -4 -4 -10z"/>
<path d="M2536 2571 c-4 -7 -5 -15 -2 -18 9 -9 19 4 14 18 -4 11 -6 11 -12 0z"/>
<path d="M3821 2564 c0 -11 3 -14 6 -6 3 7 2 16 -1 19 -3 4 -6 -2 -5 -13z"/>
<path d="M2818 2503 c7 -3 16 -2 19 1 4 3 -2 6 -13 5 -11 0 -14 -3 -6 -6z"/>
<path d="M3552 2493 c-13 -9 -36 -16 -52 -15 -32 1 -40 -12 -15 -22 9 -3 15
-18 15 -36 0 -38 17 -39 27 -2 l7 27 7 -30 c6 -28 7 -28 8 -5 0 14 10 42 21
63 22 40 18 45 -18 20z"/>
<path d="M2660 2469 c0 -5 5 -7 10 -4 6 3 10 8 10 11 0 2 -4 4 -10 4 -5 0 -10
-5 -10 -11z"/>
<path d="M2983 2453 c-41 -4 -54 -15 -33 -28 6 -3 11 -18 11 -33 1 -27 1 -27
8 3 l7 30 7 -36 c4 -21 3 -49 -3 -64 -6 -15 -8 -30 -6 -32 3 -3 11 16 19 43
12 41 15 45 20 24 9 -35 21 -16 22 33 1 24 5 48 9 55 4 7 2 11 -6 10 -7 -1
-32 -3 -55 -5z"/>
<path d="M3327 2407 c6 -73 8 -76 26 -42 l16 30 1 -36 c0 -31 29 -91 30 -62 0
6 -4 15 -10 18 -16 10 -13 85 4 85 7 0 16 9 19 20 4 15 -1 21 -19 25 -78 16
-71 20 -67 -38z"/>
<path d="M2630 2436 c0 -2 8 -10 18 -17 15 -13 16 -12 3 4 -13 16 -21 21 -21
13z"/>
<path d="M3719 2423 c-13 -16 -12 -17 4 -4 9 7 17 15 17 17 0 8 -8 3 -21 -13z"/>
<path d="M3100 2410 c-12 -7 -11 -10 5 -17 33 -13 155 -7 171 8 11 12 8 14
-24 14 -20 -1 -45 -5 -55 -9 -11 -5 -23 -4 -30 3 -13 13 -46 14 -67 1z"/>
<path d="M2842 2330 c0 -14 2 -19 5 -12 2 6 2 18 0 25 -3 6 -5 1 -5 -13z"/>
<path d="M3510 2341 c0 -6 4 -13 10 -16 6 -3 7 1 4 9 -7 18 -14 21 -14 7z"/>
<path d="M2820 2769 c0 -5 9 -9 20 -9 11 0 20 2 20 4 0 2 -9 6 -20 9 -11 3
-20 1 -20 -4z"/>
<path d="M2838 2743 c7 -3 16 -2 19 1 4 3 -2 6 -13 5 -11 0 -14 -3 -6 -6z"/>
<path d="M2798 2673 c-2 -5 -1 -26 3 -48 l6 -40 2 48 c1 44 -3 57 -11 40z"/>
<path d="M3525 2770 c-16 -7 -17 -9 -3 -9 9 -1 20 4 23 9 7 11 7 11 -20 0z"/>
<path d="M3518 2743 c7 -3 16 -2 19 1 4 3 -2 6 -13 5 -11 0 -14 -3 -6 -6z"/>
<path d="M3563 2660 c0 -36 2 -50 4 -32 2 17 2 47 0 65 -2 17 -4 3 -4 -33z"/>
<path d="M3348 2683 c7 -3 16 -2 19 1 4 3 -2 6 -13 5 -11 0 -14 -3 -6 -6z"/>
<path d="M3130 2681 c0 -25 6 -27 13 -6 4 8 2 17 -3 20 -6 4 -10 -3 -10 -14z"/>
<path d="M3132 2584 l0 -59 9 44 c5 24 5 51 0 59 -5 9 -8 -7 -9 -44z"/>
<path d="M3220 2686 c0 -8 5 -18 10 -21 6 -3 10 1 10 9 0 8 -4 18 -10 21 -5 3
-10 -1 -10 -9z"/>
<path d="M3222 2600 c0 -19 2 -27 5 -17 2 9 2 25 0 35 -3 9 -5 1 -5 -18z"/>
<path d="M3410 5971 c-30 -9 -64 -23 -75 -30 -20 -12 -20 -12 0 -5 11 3 52 17
90 29 39 13 63 23 55 24 -8 0 -40 -8 -70 -18z"/>
<path d="M4421 5955 c0 -11 4 -27 9 -35 9 -13 10 -13 9 0 0 8 -4 24 -9 35 l-9
20 0 -20z"/>
<path d="M3092 5682 l-2 -102 -27 17 -28 17 24 -27 c14 -15 26 -35 27 -45 6
-53 37 -252 38 -252 2 0 2 76 2 169 -1 94 -4 162 -7 153 -10 -25 -18 16 -22
103 -2 55 -4 47 -5 -33z"/>
<path d="M1793 5705 c0 -22 2 -30 4 -17 2 12 2 30 0 40 -3 9 -5 -1 -4 -23z"/>
<path d="M2280 5730 c0 -6 7 -10 15 -10 8 0 15 2 15 4 0 2 -7 6 -15 10 -8 3
-15 1 -15 -4z"/>
<path d="M3674 5674 c-18 -14 -18 -14 6 -3 31 14 36 19 24 19 -6 0 -19 -7 -30
-16z"/>
<path d="M3550 5640 c-30 -17 -68 -41 -85 -55 -16 -14 11 -2 60 26 101 58 102
59 89 59 -5 0 -34 -14 -64 -30z"/>
<path d="M2615 5615 c28 -15 56 -32 63 -37 7 -6 15 -8 18 -5 7 7 -72 53 -106
61 -14 4 -2 -5 25 -19z"/>
<path d="M2727 5575 c37 -47 73 -82 73 -69 0 6 -23 32 -52 59 -49 48 -50 48
-21 10z"/>
<path d="M1896 5572 c-3 -5 8 -6 25 -4 16 2 29 6 29 8 0 8 -49 4 -54 -4z"/>
<path d="M4375 5520 c10 -11 20 -18 23 -15 7 6 -18 35 -31 35 -5 0 -2 -9 8
-20z"/>
<path d="M4435 5510 c10 -11 20 -20 22 -20 2 0 -1 9 -7 20 -6 11 -16 20 -22
20 -6 0 -3 -9 7 -20z"/>
<path d="M1900 5510 c0 -5 4 -10 9 -10 6 0 13 5 16 10 3 6 -1 10 -9 10 -9 0
-16 -4 -16 -10z"/>
<path d="M2820 5516 c0 -2 8 -10 18 -17 15 -13 16 -12 3 4 -13 16 -21 21 -21
13z"/>
<path d="M1865 5500 c-3 -6 1 -7 9 -4 18 7 21 14 7 14 -6 0 -13 -4 -16 -10z"/>
<path d="M1759 5447 c-41 -27 -87 -99 -94 -147 -4 -28 -3 -30 3 -10 19 54 44
90 94 134 56 49 54 62 -3 23z"/>
<path d="M3157 5463 c-4 -3 -7 -11 -7 -17 0 -6 5 -5 12 2 6 6 9 14 7 17 -3 3
-9 2 -12 -2z"/>
<path d="M3750 5374 c-41 -25 -86 -56 -100 -68 -14 -13 -48 -29 -75 -35 -81
-19 -88 -31 -20 -31 l60 -1 -40 -24 c-30 -19 -35 -25 -19 -25 11 0 49 18 85
40 130 82 253 131 394 157 l40 7 -60 6 c-33 4 -54 7 -46 8 8 1 12 4 10 7 -6 6
-163 -31 -192 -46 -13 -6 -7 3 13 20 19 17 33 30 30 31 -3 0 -39 -21 -80 -46z"/>
<path d="M2355 5401 c-65 -7 -66 -7 66 -35 75 -17 198 -72 294 -133 28 -18 64
-35 80 -38 29 -6 28 -6 -10 18 l-40 26 53 -1 c29 0 56 2 59 5 3 3 -21 13 -53
23 -33 9 -77 31 -99 49 -42 34 -145 95 -161 95 -5 0 6 -9 24 -20 46 -28 40
-31 -22 -10 -68 24 -115 29 -191 21z"/>
<path d="M2388 5343 c7 -3 16 -2 19 1 4 3 -2 6 -13 5 -11 0 -14 -3 -6 -6z"/>
<path d="M1978 5324 c-26 -8 -50 -19 -53 -24 -3 -5 8 -4 25 2 18 6 70 9 121 6
74 -3 86 -2 68 8 -22 11 -22 12 -3 17 10 2 -10 5 -46 5 -36 0 -86 -6 -112 -14z"/>
<path d="M2495 5304 c44 -20 84 -40 90 -45 5 -5 14 -9 20 -9 17 1 -27 31 -90
61 -33 16 -69 29 -80 29 -11 0 16 -17 60 -36z"/>
<path d="M3875 5322 c-43 -18 -115 -61 -115 -68 0 -2 19 5 43 17 23 12 67 33
97 45 30 13 46 23 35 23 -11 0 -38 -8 -60 -17z"/>
<path d="M4234 5334 c19 -6 19 -7 -3 -18 -18 -10 -6 -11 68 -8 50 2 103 0 120
-6 43 -15 39 -6 -6 14 -21 9 -74 17 -118 19 -44 3 -71 2 -61 -1z"/>
<path d="M2220 5280 c8 -5 22 -10 30 -10 13 0 13 1 0 10 -8 5 -22 10 -30 10
-13 0 -13 -1 0 -10z"/>
<path d="M4120 5280 c-11 -8 -7 -9 15 -4 37 8 45 14 19 14 -10 0 -26 -5 -34
-10z"/>
<path d="M1653 5215 c0 -27 2 -38 4 -22 2 15 2 37 0 50 -2 12 -4 0 -4 -28z"/>
<path d="M3304 5242 c3 -5 -4 -21 -15 -38 -10 -16 -19 -33 -19 -37 0 -15 18 3
38 37 17 29 18 35 6 40 -8 3 -13 2 -10 -2z"/>
<path d="M1784 5218 l-19 -23 23 19 c12 11 22 21 22 23 0 8 -8 2 -26 -19z"/>
<path d="M3121 5224 c0 -11 3 -14 6 -6 3 7 2 16 -1 19 -3 4 -6 -2 -5 -13z"/>
<path d="M4570 5226 c0 -2 8 -10 18 -17 15 -13 16 -12 3 4 -13 16 -21 21 -21
13z"/>
<path d="M2650 5216 c0 -2 7 -9 15 -16 9 -7 15 -8 15 -2 0 5 -7 12 -15 16 -8
3 -15 4 -15 2z"/>
<path d="M1975 5200 c-3 -6 1 -7 9 -4 18 7 21 14 7 14 -6 0 -13 -4 -16 -10z"/>
<path d="M2005 5192 c-46 -16 -115 -57 -115 -68 0 -2 18 5 39 15 21 11 72 29
111 40 40 11 75 23 78 26 12 12 -67 3 -113 -13z"/>
<path d="M3690 5199 c0 -5 5 -7 10 -4 6 3 10 8 10 11 0 2 -4 4 -10 4 -5 0 -10
-5 -10 -11z"/>
<path d="M4252 5204 c3 -3 32 -12 65 -21 32 -8 80 -25 108 -38 27 -13 51 -23
52 -21 8 7 -94 65 -132 75 -42 12 -102 15 -93 5z"/>
<path d="M4370 5206 c0 -2 7 -7 16 -10 8 -3 12 -2 9 4 -6 10 -25 14 -25 6z"/>
<path d="M3165 5190 c3 -5 8 -10 11 -10 2 0 4 5 4 10 0 6 -5 10 -11 10 -5 0
-7 -4 -4 -10z"/>
<path d="M2873 5185 c9 -10 80 -36 84 -31 2 2 -3 8 -10 15 -16 13 -86 28 -74
16z"/>
<path d="M3445 5180 c-12 -4 -27 -16 -35 -25 -14 -17 -13 -17 17 -2 18 10 39
17 48 17 8 0 15 5 15 10 0 12 -17 12 -45 0z"/>
<path d="M1965 5135 c-33 -19 -78 -53 -100 -77 -22 -23 -29 -33 -15 -22 14 12
39 30 55 39 26 16 23 11 -16 -31 -43 -47 -70 -91 -69 -117 1 -7 9 4 20 23 25
48 54 76 100 100 112 57 286 69 410 27 64 -21 71 -22 52 -7 -31 26 -125 60
-170 62 -23 1 -12 4 28 7 l65 6 -53 13 c-29 6 -97 12 -150 12 -92 -1 -100 -3
-157 -35z"/>
<path d="M4090 5157 l-45 -12 65 -5 65 -5 -51 -6 c-46 -5 -184 -60 -184 -73 0
-3 24 4 53 15 36 15 84 23 159 26 126 6 221 -12 292 -57 46 -29 95 -95 97
-127 0 -11 3 -13 6 -6 10 25 -21 88 -66 137 -47 51 -43 52 19 8 l35 -25 -30
32 c-16 18 -60 50 -97 72 -66 39 -67 39 -170 38 -57 -1 -123 -6 -148 -12z"/>
<path d="M3080 5090 l-2 -55 -13 35 -13 35 -1 -58 c-1 -42 -4 -57 -13 -54 -7
2 -18 -5 -25 -17 -12 -20 -12 -20 -13 -1 0 17 -3 15 -21 -10 -12 -16 -19 -22
-15 -12 3 9 1 17 -4 17 -6 0 -10 -4 -10 -10 0 -5 -12 -17 -27 -27 -19 -13 -28
-14 -31 -5 -2 8 -11 6 -29 -8 -30 -24 -80 -26 -128 -6 -51 22 -43 10 14 -18
74 -38 131 -50 177 -37 46 12 91 55 104 97 6 21 9 23 9 9 3 -63 -82 -124 -174
-125 -34 -1 -44 -4 -31 -9 18 -7 18 -8 2 -14 -26 -10 -47 -9 -106 9 -42 12
-70 31 -125 83 -131 124 -146 132 -86 51 23 -31 20 -30 -29 14 -65 58 -134 91
-226 107 -134 23 -269 -6 -352 -76 -40 -34 -56 -63 -77 -145 -20 -78 -44 -127
-54 -111 -10 15 -41 -86 -48 -153 -7 -65 16 -149 52 -191 l26 -30 -16 32 c-40
84 -36 86 31 17 64 -66 70 -65 12 4 -27 32 -68 103 -68 119 0 4 11 -8 24 -28
13 -19 41 -48 63 -64 l38 -29 -44 49 c-46 54 -56 72 -67 130 -5 27 -4 36 5 31
7 -5 11 3 11 23 0 16 13 57 30 92 16 34 34 86 40 115 6 28 17 60 25 70 10 14
9 2 -4 -46 -10 -36 -21 -87 -24 -115 -5 -46 -3 -44 20 30 13 44 29 85 35 90 8
7 9 5 6 -5 -3 -9 -13 -51 -23 -94 -29 -132 -10 -203 81 -305 43 -48 45 -52 19
-38 -41 21 -73 56 -102 114 -28 56 -21 19 9 -44 24 -52 86 -107 142 -127 l41
-14 -41 -1 c-49 -1 -109 38 -143 93 -30 47 -37 46 -11 -1 39 -74 100 -122 155
-124 28 0 28 -1 8 -9 -13 -5 -23 -11 -23 -13 0 -6 99 10 170 27 68 16 188 20
230 6 18 -6 8 -8 -40 -9 -66 -1 -247 -34 -259 -47 -3 -4 6 -4 20 -1 14 4 66 9
115 11 79 5 84 4 47 -6 -68 -17 -53 -32 25 -24 43 4 93 19 142 41 108 48 196
58 105 11 l-30 -16 28 0 c20 0 26 -4 20 -12 -10 -17 41 16 100 65 43 35 124
138 141 177 3 8 4 -3 1 -25 l-4 -40 24 50 24 50 0 -34 c1 -55 10 -32 36 94 26
126 57 192 99 214 14 8 23 18 20 22 -2 4 9 27 25 51 16 24 32 57 35 73 l6 30
-14 -25 c-13 -23 -14 -22 -9 20 3 25 0 61 -5 80 -10 35 -10 34 -12 -20z m-900
-670 c13 -9 13 -10 0 -10 -8 0 -22 5 -30 10 -13 9 -13 10 0 10 8 0 22 -5 30
-10z"/>
<path d="M3278 5120 c-4 -14 -8 -45 -8 -70 0 -35 -3 -42 -11 -30 -22 31 2 -45
29 -90 15 -25 27 -48 27 -52 0 -3 13 -16 28 -28 20 -16 26 -28 22 -44 -5 -16
-4 -18 4 -6 8 12 13 8 24 -20 8 -19 20 -61 26 -92 6 -32 16 -84 23 -115 l12
-58 6 44 5 44 33 -80 c18 -45 39 -86 46 -92 7 -6 3 10 -10 36 -33 63 -30 85 4
36 53 -78 150 -172 212 -203 25 -13 25 -13 7 7 -17 20 -17 20 10 16 l28 -5
-32 21 c-18 11 -33 23 -33 26 0 11 76 -8 122 -31 59 -30 150 -54 202 -54 47 0
40 10 -17 27 -39 12 -34 12 58 9 l100 -4 -55 14 c-30 8 -98 17 -150 21 -60 4
-87 9 -75 14 37 14 170 9 255 -11 86 -20 184 -27 130 -10 l-25 8 28 1 c67 2
123 48 176 141 32 57 21 50 -24 -16 -43 -63 -95 -94 -152 -93 l-38 0 43 14
c77 24 145 95 167 175 4 15 -4 7 -20 -20 -36 -61 -53 -79 -100 -102 l-39 -20
60 65 c95 104 113 187 74 337 -11 41 -20 80 -19 85 0 20 40 -66 54 -117 10
-40 14 -46 14 -23 0 28 -26 134 -44 180 -7 18 -6 18 8 -1 9 -12 26 -56 38 -99
11 -43 32 -98 45 -123 26 -49 30 -81 13 -115 -10 -21 -10 -21 5 -3 15 19 16
18 16 -13 0 -40 -20 -79 -68 -134 -25 -29 -17 -24 27 18 l64 60 -24 -44 c-13
-24 -44 -67 -68 -95 -40 -45 -37 -44 22 14 37 35 67 61 67 57 0 -5 -9 -26 -20
-49 -19 -40 -19 -40 0 -23 30 28 55 104 54 170 0 67 -31 186 -43 167 -9 -15
-46 64 -62 133 -16 68 -43 110 -95 146 -75 52 -117 62 -244 62 -160 0 -230
-26 -339 -127 l-44 -41 36 46 c20 25 37 49 37 54 0 4 -39 -30 -87 -76 -92 -86
-138 -113 -215 -124 -51 -8 -86 3 -52 16 13 5 4 8 -28 8 -67 1 -133 32 -154
73 -9 18 -23 69 -30 113 -6 44 -13 69 -15 55 -1 -15 -4 -8 -8 20 -5 39 -7 42
-13 20z m932 -700 c-8 -5 -22 -10 -30 -10 -13 0 -13 1 0 10 8 5 22 10 30 10
13 0 13 -1 0 -10z"/>
<path d="M2570 4965 c48 -48 78 -70 127 -90 85 -34 102 -31 28 5 -33 16 -73
42 -90 57 -54 51 -107 93 -117 93 -6 0 18 -29 52 -65z"/>
<path d="M3820 5013 c-14 -10 -41 -32 -60 -49 -60 -55 -90 -76 -138 -96 -40
-16 -42 -18 -14 -14 62 10 137 55 195 116 57 60 63 75 17 43z"/>
<path d="M3170 5000 c0 -19 3 -21 12 -12 9 9 9 15 0 24 -9 9 -12 7 -12 -12z"/>
<path d="M3335 4963 c18 -72 98 -122 172 -108 40 7 146 55 139 62 -2 3 -13 0
-24 -6 -40 -21 -132 -5 -132 23 0 6 -4 5 -9 -3 -7 -11 -13 -11 -32 0 -13 7
-30 19 -37 28 -12 14 -13 14 -8 -3 6 -16 4 -17 -9 -6 -8 7 -15 20 -16 29 0 12
-2 11 -9 -4 -7 -18 -8 -19 -15 -2 -11 28 -28 20 -20 -10z"/>
<path d="M2630 4966 c0 -2 8 -10 18 -17 15 -13 16 -12 3 4 -13 16 -21 21 -21
13z"/>
<path d="M3719 4953 c-13 -16 -12 -17 4 -4 16 13 21 21 13 21 -2 0 -10 -8 -17
-17z"/>
<path d="M3138 4953 c6 -2 18 -2 25 0 6 3 1 5 -13 5 -14 0 -19 -2 -12 -5z"/>
<path d="M3115 4925 c-40 -18 -12 -18 45 -1 40 13 41 15 15 15 -16 0 -43 -6
-60 -14z"/>
<path d="M4640 4868 c0 -3 7 -21 15 -39 16 -34 16 -34 10 -4 -6 26 -25 60 -25
43z"/>
<path d="M3090 4815 c-6 -15 -8 -30 -6 -33 3 -3 -8 -22 -24 -42 -29 -37 -38
-56 -22 -46 13 8 -43 -99 -72 -136 -28 -37 -86 -147 -86 -163 0 -5 9 1 20 15
19 23 18 19 -4 -45 l-25 -70 25 29 25 29 -5 -39 c-5 -32 1 -25 34 46 67 142
74 153 110 174 19 11 55 23 80 27 l45 6 -55 2 c-54 2 -54 2 -30 17 l25 15 -25
-4 c-14 -3 -33 -8 -42 -12 -13 -5 -15 -2 -11 15 8 29 85 63 140 62 53 0 114
-30 124 -59 7 -20 6 -21 -17 -13 -37 14 -66 12 -34 -3 24 -10 22 -11 -25 -17
-38 -5 -42 -7 -17 -8 44 -3 92 -24 118 -53 11 -13 38 -66 59 -116 39 -96 73
-147 55 -81 -15 51 -12 56 15 23 30 -37 30 -34 4 34 -17 46 -18 52 -4 41 16
-13 16 -11 0 25 -21 51 -62 122 -76 130 -5 4 -21 31 -33 60 -14 30 -38 63 -58
79 -35 26 -62 36 -40 14 21 -21 13 -24 -53 -20 -35 2 -79 -1 -96 -7 l-33 -11
24 25 c25 27 21 32 -12 14 -21 -11 -21 -11 1 19 12 17 28 48 37 69 l15 38 -26
-30 c-21 -24 -24 -25 -15 -7 7 13 9 26 6 29 -3 3 -10 -7 -16 -22z"/>
<path d="M3230 4837 c-1 -33 78 -147 101 -147 13 0 -8 39 -40 74 -14 16 -20
26 -13 22 16 -10 15 3 -4 34 l-15 25 5 -25 5 -25 -19 25 c-11 14 -20 21 -20
17z"/>
<path d="M2995 4800 c-3 -5 -1 -10 4 -10 6 0 11 5 11 10 0 6 -2 10 -4 10 -3 0
-8 -4 -11 -10z"/>
<path d="M3156 4761 c-3 -4 6 -6 19 -3 14 2 25 6 25 8 0 8 -39 4 -44 -5z"/>
<path d="M2971 4714 c-15 -61 -8 -68 9 -9 7 25 10 48 8 51 -3 2 -11 -16 -17
-42z"/>
<path d="M3388 4705 c8 -30 17 -53 19 -51 6 5 -18 96 -27 101 -4 2 0 -20 8
-50z"/>
<path d="M3148 4733 c6 -2 18 -2 25 0 6 3 1 5 -13 5 -14 0 -19 -2 -12 -5z"/>
<path d="M1830 4575 c0 -8 4 -15 10 -15 5 0 7 7 4 15 -4 8 -8 15 -10 15 -2 0
-4 -7 -4 -15z"/>
<path d="M4526 4581 c-4 -7 -5 -15 -2 -18 9 -9 19 4 14 18 -4 11 -6 11 -12 0z"/>
<path d="M3060 4492 c-28 -28 -50 -100 -50 -162 0 -37 -18 -84 -88 -235 -48
-101 -57 -131 -60 -188 -4 -57 0 -75 23 -122 15 -32 44 -70 69 -90 47 -38 76
-48 36 -12 -14 12 -34 33 -45 47 l-20 25 21 -17 c11 -10 31 -18 45 -18 19 0
21 -2 9 -10 -13 -8 -13 -10 2 -10 9 0 30 12 47 26 17 14 31 21 31 16 0 -5 -7
-15 -15 -22 -8 -7 -15 -17 -15 -23 0 -21 53 40 77 88 l25 50 -6 -55 c-3 -30
-8 -66 -11 -80 l-6 -25 12 25 c17 40 39 166 40 233 1 82 13 42 23 -74 4 -47
11 -99 16 -115 8 -29 8 -28 9 10 l1 39 28 -39 c16 -21 37 -46 47 -54 16 -13
16 -9 -4 25 -17 30 -18 35 -4 19 24 -27 73 -59 73 -47 0 5 -6 15 -12 22 -11
11 -10 13 3 8 9 -3 28 1 43 8 24 13 25 13 16 -4 -5 -11 -23 -31 -41 -45 -17
-14 -26 -26 -21 -26 5 0 30 18 54 40 61 53 90 118 90 197 0 54 -6 76 -55 180
-61 130 -97 229 -97 267 0 56 -23 130 -48 153 -22 21 -34 23 -119 23 -90 0
-96 -1 -123 -28z"/>
<path d="M4641 4464 c0 -11 3 -14 6 -6 3 7 2 16 -1 19 -3 4 -6 -2 -5 -13z"/>
<path d="M2809 4423 c-13 -16 -12 -17 4 -4 16 13 21 21 13 21 -2 0 -10 -8 -17
-17z"/>
<path d="M3510 4426 c0 -2 8 -10 18 -17 15 -13 16 -12 3 4 -13 16 -21 21 -21
13z"/>
<path d="M2848 4363 c-29 -34 -30 -48 -2 -21 15 15 26 30 23 33 -3 3 -13 -3
-21 -12z"/>
<path d="M3500 4373 c0 -5 12 -20 26 -34 24 -21 26 -22 16 -3 -13 25 -42 50
-42 37z"/>
<path d="M1640 4230 c-1 -69 -5 -147 -9 -174 -5 -32 -4 -68 4 -100 26 -114 70
-156 162 -156 63 0 126 -16 194 -50 l44 -21 -30 26 c-86 73 -115 96 -115 88 0
-5 6 -15 13 -23 9 -11 8 -11 -7 0 -11 8 -33 33 -49 55 -23 31 -28 34 -22 15 4
-14 12 -31 18 -38 5 -7 7 -15 4 -18 -7 -7 -57 66 -57 83 0 6 -5 15 -12 19 -8
5 -9 -3 -5 -27 l6 -34 -14 30 c-8 17 -15 39 -16 50 -1 14 -4 11 -9 -10 -6 -25
-8 -19 -10 30 -1 44 -4 55 -10 40 -6 -15 -9 -8 -9 28 -1 26 -5 47 -11 47 -5 0
-11 21 -11 48 -1 42 -2 44 -9 17 l-8 -30 -1 37 c0 20 4 38 11 40 9 3 7 14 -5
40 -9 20 -17 44 -18 55 0 10 -4 27 -9 38 -5 13 -9 -25 -10 -105z"/>
<path d="M4708 4320 c-4 -14 -8 -37 -8 -52 0 -16 -5 -28 -11 -28 -5 0 -9 -12
-8 -27 1 -16 1 -57 0 -93 -2 -47 -5 -59 -11 -45 -6 15 -9 6 -10 -35 -2 -43 -4
-50 -10 -30 -6 20 -8 14 -10 -30 -2 -32 -5 -45 -8 -30 -4 22 -7 19 -23 -25
-13 -35 -17 -40 -13 -17 3 17 3 32 0 32 -2 0 -17 -22 -32 -50 -15 -27 -32 -50
-37 -50 -6 0 -6 5 0 13 6 6 13 23 16 37 5 23 4 23 -6 6 -20 -32 -80 -94 -68
-69 17 34 13 38 -9 10 -30 -38 -76 -68 -110 -72 -16 -2 -39 -9 -50 -15 -20
-11 -45 -3 -79 24 -7 6 -19 11 -25 11 -6 0 -36 13 -66 28 -50 25 -53 26 -29 5
15 -13 42 -34 60 -47 19 -13 26 -21 17 -18 -34 12 -18 -13 18 -28 30 -12 44
-13 78 -3 22 7 48 12 56 13 8 0 50 15 92 33 59 25 91 32 140 32 80 0 117 22
149 86 26 55 27 80 13 309 -6 93 -12 141 -16 125z m-348 -564 c0 -2 -7 -7 -16
-10 -8 -3 -12 -2 -9 4 6 10 25 14 25 6z"/>
<path d="M2470 4229 c-36 -22 -87 -51 -115 -65 -69 -33 -42 -30 48 6 42 17 86
30 99 30 12 0 41 9 63 20 22 11 32 18 23 16 -9 -3 -34 -8 -55 -11 l-38 -6 30
25 c43 37 20 30 -55 -15z"/>
<path d="M2839 4237 c-53 -66 -99 -88 -297 -138 -103 -27 -207 -49 -232 -50
-42 -1 -43 -2 -15 -9 49 -14 -134 2 -195 16 -30 7 -56 11 -58 9 -7 -7 72 -25
148 -35 41 -6 90 -15 109 -21 49 -16 132 -4 209 32 37 18 92 37 122 45 50 12
53 12 35 -3 -11 -8 -33 -22 -50 -30 l-30 -14 30 6 c74 16 221 126 245 185 18
42 9 45 -21 7z m-384 -197 c-3 -5 -21 -9 -38 -9 l-32 2 35 7 c19 4 36 8 38 9
2 0 0 -3 -3 -9z"/>
<path d="M3845 4245 l30 -27 -35 7 c-19 4 -44 9 -55 12 -14 4 -17 2 -10 -5 6
-6 38 -18 71 -27 34 -9 98 -29 143 -45 45 -17 85 -30 88 -30 4 0 -31 20 -77
43 -47 24 -107 56 -135 71 l-50 28 30 -27z"/>
<path d="M3505 4240 c17 -55 125 -148 213 -183 57 -23 77 -21 26 2 -23 10 -44
23 -48 29 -9 16 95 -15 165 -48 81 -38 147 -45 229 -26 36 9 79 16 96 16 31 0
139 28 132 35 -1 2 -26 -2 -53 -10 -28 -7 -88 -15 -135 -18 -52 -4 -73 -3 -55
2 29 8 29 9 -10 10 -36 0 -257 51 -392 89 -38 10 -70 30 -114 70 -50 46 -60
51 -54 32z m458 -207 c-7 -2 -21 -2 -30 0 -10 3 -4 5 12 5 17 0 24 -2 18 -5z"/>
<path d="M2740 4214 c-19 -13 -60 -32 -90 -40 -82 -22 -202 -66 -197 -71 8 -7
174 35 226 58 27 11 61 34 77 50 34 35 30 36 -16 3z"/>
<path d="M4580 4225 c-8 -9 -8 -15 -2 -15 12 0 26 19 19 26 -2 2 -10 -2 -17
-11z"/>
<path d="M1779 4215 c17 -33 31 -51 31 -40 0 6 -10 21 -21 35 -13 17 -17 18
-10 5z"/>
<path d="M3610 4209 c14 -11 42 -29 63 -40 39 -21 226 -74 233 -66 6 6 -87 42
-161 62 -33 9 -80 27 -104 41 -53 29 -65 31 -31 3z"/>
<path d="M2906 4165 c-4 -16 -27 -60 -52 -96 -44 -66 -75 -137 -73 -168 0 -9
7 2 15 23 19 53 24 56 18 10 -5 -36 -4 -35 21 21 44 99 86 217 82 229 -2 6 -7
-3 -11 -19z"/>
<path d="M4100 4152 c0 -14 83 -24 111 -13 22 8 21 9 -11 8 -19 -1 -50 2 -67
7 -20 4 -33 4 -33 -2z"/>
<path d="M1830 4140 c0 -5 5 -10 11 -10 5 0 7 5 4 10 -3 6 -8 10 -11 10 -2 0
-4 -4 -4 -10z"/>
<path d="M3460 4142 c0 -7 20 -61 44 -120 24 -59 46 -116 50 -127 3 -11 4 0 1
25 l-3 45 19 -35 c15 -26 18 -29 13 -10 -15 59 -124 253 -124 222z"/>
<path d="M2171 4129 c-18 -6 -32 -12 -30 -13 8 -7 69 7 69 15 0 5 -1 9 -2 8
-2 0 -18 -5 -37 -10z"/>
<path d="M1933 4056 c58 -54 100 -68 182 -57 l60 8 -50 2 c-70 2 -120 17 -185
57 l-55 35 48 -45z"/>
<path d="M4420 4064 c-64 -40 -106 -53 -175 -55 l-50 -1 55 -9 c69 -11 105 -4
155 31 34 24 86 72 74 69 -2 -1 -29 -16 -59 -35z"/>
<path d="M1797 4045 c7 -49 13 -58 13 -19 0 16 -5 36 -10 44 -6 10 -7 2 -3
-25z"/>
<path d="M1820 4009 c0 -8 14 -41 30 -74 17 -33 27 -51 24 -40 -37 108 -54
145 -54 114z"/>
<path d="M2673 4008 c3 -10 -4 -13 -32 -10 l-36 3 42 -20 c45 -21 54 -39 69
-144 10 -75 15 -48 6 36 -5 44 -4 77 1 77 4 0 7 14 5 32 -2 26 -8 32 -32 35
-21 3 -27 0 -23 -9z"/>
<path d="M3641 4007 c-10 -10 -2 -59 9 -52 4 2 4 -15 -1 -38 -4 -23 -8 -62 -7
-87 l0 -45 8 40 c4 22 11 58 14 80 8 46 23 65 69 82 l32 13 -36 -3 c-27 -2
-35 1 -32 10 6 14 -41 15 -56 0z"/>
<path d="M4517 3967 c-29 -83 -30 -95 -2 -44 14 27 25 59 23 72 -2 19 -7 13
-21 -28z"/>
<path d="M2560 3940 c-19 -11 -28 -19 -19 -20 9 0 19 -10 22 -21 4 -15 11 -20
23 -15 9 3 22 2 28 -3 6 -5 22 -11 36 -13 l25 -5 -25 -11 c-25 -12 -24 -12 7
-9 28 3 33 0 36 -22 3 -20 4 -18 5 9 5 112 -51 157 -138 110z m30 -40 c0 -5
-2 -10 -4 -10 -3 0 -8 5 -11 10 -3 6 -1 10 4 10 6 0 11 -4 11 -10z"/>
<path d="M3700 3942 c-18 -14 -22 -30 -25 -82 -1 -36 -1 -54 2 -40 3 23 8 25
38 22 19 -2 32 -8 29 -13 -11 -19 24 -8 42 13 12 14 13 18 3 10 -10 -7 -29
-10 -48 -6 -36 7 -52 24 -23 24 11 0 32 10 48 22 23 18 27 19 21 5 -3 -9 -2
-17 3 -17 5 0 12 9 15 21 6 16 12 19 33 15 19 -4 13 1 -18 19 -54 29 -90 31
-120 7z"/>
<path d="M4141 3944 c0 -11 3 -14 6 -6 3 7 2 16 -1 19 -3 4 -6 -2 -5 -13z"/>
<path d="M4147 3899 c7 -7 15 -10 18 -7 3 3 -2 9 -12 12 -14 6 -15 5 -6 -5z"/>
<path d="M4155 3861 c24 -28 75 -65 80 -59 3 2 -19 21 -48 43 -29 21 -43 28
-32 16z"/>
<path d="M2146 3825 c-27 -25 -45 -45 -40 -45 5 0 30 20 54 45 24 25 42 45 39
45 -2 0 -26 -20 -53 -45z"/>
<path d="M2566 3857 c10 -26 54 -48 54 -27 0 6 -5 10 -12 10 -6 0 -20 8 -30
17 -18 16 -18 16 -12 0z"/>
<path d="M2355 3847 c-38 -12 -35 -13 63 -13 104 0 117 10 26 20 -27 3 -66 0
-89 -7z"/>
<path d="M3883 3849 c-18 -5 -33 -11 -33 -12 0 -1 46 -3 102 -3 64 -1 94 2 80
7 -38 14 -116 19 -149 8z"/>
<path d="M2218 3804 c-27 -13 -48 -21 -48 -18 0 4 -8 0 -17 -8 -40 -34 -59
-39 -100 -22 l-38 16 19 -21 c30 -33 88 -45 133 -26 27 11 34 18 24 24 -9 6 2
17 38 40 48 29 61 42 44 41 -5 -1 -29 -12 -55 -26z"/>
<path d="M2560 3806 c0 -2 8 -10 18 -17 15 -13 16 -12 3 4 -13 16 -21 21 -21
13z"/>
<path d="M3784 3795 c-10 -8 -14 -15 -8 -15 6 0 17 7 24 15 16 19 9 19 -16 0z"/>
<path d="M2008 3793 c7 -3 16 -2 19 1 4 3 -2 6 -13 5 -11 0 -14 -3 -6 -6z"/>
<path d="M3246 3667 c3 -10 9 -15 12 -12 3 3 0 11 -7 18 -10 9 -11 8 -5 -6z"/>
</g>
</svg>
